<?xml version="1.0" encoding="UTF-8"?>
<svg width="3020px" height="4243px" viewBox="0 0 3020 4243" version="1.1" xmlns="http://www.w3.org/2000/svg" xmlns:xlink="http://www.w3.org/1999/xlink">
    <title>Drawing</title>
    <g id="Page-1" stroke="none" stroke-width="1" fill="none" fill-rule="evenodd">
        <g id="Artboard" transform="translate(-441.000000, -372.000000)">
            <g id="Drawing" transform="translate(448.000000, 377.992945)">
                <g id="Shirt" transform="translate(437.999667, 1284.542953)" stroke="#333333" stroke-width="10">
                    <path d="M1228.00033,3.46410162 C1237.33367,5.46410162 1242.33367,15.1307683 1243.00033,32.4641016 L1281.00033,112.464102 L1293.33993,133.119512 C1293.97315,139.003632 1293.85995,144.118495 1293.00033,148.464102 C1285.36095,187.083185 1251.39756,221.078465 1218.98274,258.188125 L1217.00033,260.464102 C1148.84695,338.943753 1011.6298,663.129688 982.638573,728.772485 L981.000333,732.464102 C956.000333,788.464102 867.000333,1147.4641 854.000333,1186.4641 C841.259033,1224.688 638.319723,2222.54732 625.540384,2277.3271 L625.211729,2278.69647 L625.037,2279.346 L625.000333,2279.4641 C621.831343,2289.60487 634.629924,2490.75394 663.396077,2882.91132 L665.168033,2907.0347 L668.000333,2945.4641 L1366.00033,2945.4641 L0,2946.4641 L0,2945.464 L61.0003332,2945.4641 L132.000333,2829.4641 L132.136085,2827.01349 L132.284214,2824.59095 L132.443222,2822.22499 L132.559677,2820.62016 C134.067805,2800.46399 136.830829,2786.83329 140.84875,2779.72804 L143.240388,2775.5852 L145.27173,2772.0172 L147.126494,2768.72545 L148.29289,2766.63966 C149.869957,2763.81129 151.52716,2760.80575 153.176333,2757.7681 L154.810899,2754.74125 L155.762772,2752.9625 L157.166012,2750.31537 C162.551394,2740.09354 167.000333,2730.88358 167.000333,2728.4641 C167.000333,2723.4641 159.000333,2678.4641 167.000333,2662.4641 C172.333667,2651.79743 177.333667,2638.4641 182.000333,2622.4641 L203.000333,2561.4641 L186.000333,2540.4641 L188.133176,2518.96955 L189.076284,2509.56207 C196.5042,2435.72701 201.125183,2396.08549 202.939233,2390.6375 L203.100771,2390.18136 L203.211369,2389.83792 L203.328632,2389.44074 C204.576867,2385.04402 206.353351,2373.58121 208.043898,2360.85916 L208.484441,2357.50107 L208.846785,2354.67539 L209.061472,2352.97409 L209.657348,2348.1444 L210.325586,2342.52892 L210.720487,2339.09981 C212.001902,2327.82521 212.918274,2318.25759 212.995104,2314.88314 L213.006285,2313.94744 L213.019807,2313.47368 C213.158671,2309.49925 214.029035,2301.15496 215.271954,2292.44904 L215.601263,2290.19343 L215.970285,2287.7805 L216.357217,2285.37225 C218.013315,2275.32259 220.044676,2266.26042 221.880039,2264.56483 L222.000333,2264.4641 C224.667,2262.4641 221.667,2249.79743 213.000333,2226.4641 L236.000333,2132.4641 L243.000333,2105.4641 L219.000333,2001.4641 L220.501133,1971.1331 L221.629333,1948.66626 L222.794081,1925.81905 C227.904518,1826.4248 231.286335,1772.40682 232.939533,1763.7651 L233.119133,1762.8877 C235.039933,1753.2053 236.000333,1730.39743 236.000333,1694.4641 L239.000333,1618.4641 L239.869133,1608.1777 C246.658467,1528.27637 251.341967,1484.77587 253.919633,1477.6762 L254.000333,1477.4641 C256.667,1470.79743 267.333667,1413.79743 286.000333,1306.4641 L330.000333,1100.4641 L338.180235,1070.07778 L343.506774,1050.3658 C370.542332,950.48623 385.345185,898.558864 387.915333,894.583702 L388.000333,894.464102 C390.667,891.130768 408.333667,843.797435 441.000333,752.464102 L509.000333,611.464102 L510.862733,605.033302 L512.491379,599.356355 L514.372525,592.723417 L515.967871,587.01858 C521.834834,565.880102 524.843668,553.137378 524.994373,548.790409 L525.000333,548.464102 C525.000333,543.130768 535.667,525.464102 557.000333,495.464102 L557.070733,490.832102 L557.105389,487.989533 L557.132344,485.217559 L557.151597,482.516182 C557.159299,481.183142 557.164112,479.876575 557.166037,478.596482 L557.166759,476.696197 C557.146062,449.743367 555.790387,435.027835 553.099733,432.549602 L553.000333,432.464102 C551.971036,431.640664 551.513844,430.435824 551.628755,428.849581 L565.000333,410.464102 L566.365333,404.766602 L567.335479,400.660659 C574.941659,368.267018 578.828077,346.766966 578.994733,336.160502 L579.000333,335.464102 C579.000333,327.853978 583.008221,312.027685 587.4357,295.610351 L592.157337,278.212843 L593.344491,273.768473 L594.311551,270.079189 L595.058822,267.164346 C597.332223,258.188198 598.935156,250.753604 598.998393,246.707673 L599.000333,246.464102 C599.000333,237.130768 612.333667,210.797435 639.000333,167.464102 C645.813893,177.464102 648.147226,182.464102 646.000333,182.464102 L650.147533,210.835302 C665.217133,314.356902 672.833833,371.780935 672.997633,383.107402 L673.000333,383.464102 C673.000333,394.797435 690.667,418.464102 726.000333,454.464102 L732.180509,455.373079 C739.509035,456.463594 746.012476,457.479102 751.690833,458.419602 L755.560459,459.070754 C772.520375,461.972775 781.000333,464.103891 781.000333,465.464102 L781.002256,465.602541 C781.051607,467.206451 782.050966,462.160304 784.000333,450.464102 C780.000333,450.464102 778.000333,447.464102 778.000333,441.464102 C778.000333,432.464102 794.000333,393.464102 803.000333,388.464102 L803.85545,387.982485 C813.449594,382.516341 837.909146,366.792789 851.576762,366.469173 L852.000333,366.464102 C861.333667,366.464102 878.667,354.797435 904.000333,331.464102 L1056.64023,209.400202 C1090.72343,182.165002 1109.36983,167.294602 1112.57943,164.789002 L1113.00033,164.464102 C1117.00033,161.464102 1190.00033,96.4641016 1190.00033,85.4641016 C1190.00033,80.6879597 1192.9696,54.561355 1198.90814,7.08428765 L1198.91773,7.07770577 L1200.22239,6.37590404 C1203.08516,4.82173374 1204.67781,3.85113293 1205.00033,3.46410162 C1210.00033,-2.53589838 1214.00033,0.464101615 1228.00033,3.46410162 Z" id="Path"></path>
                    <path d="M572.000333,366.464102 L625.000333,432.464102 C617.000333,472.464102 605.333667,496.130768 590.000333,503.464102 L587.459567,504.671799 C573.557167,511.237559 564.404089,514.834994 560.000333,515.464102 C556.655015,511.358484 553.691213,507.478307 551.108928,503.823573 L553.247952,500.770087 C554.459725,499.046579 555.710534,497.277882 557.000333,495.464102 L557.070733,490.832102 C557.552067,454.858768 556.2284,435.431268 553.099733,432.549602 L553.000333,432.464102 C549.667,429.797435 552.333667,423.130768 561.000333,412.464102 L572.000333,366.464102 Z" id="Path"></path>
                </g>
                <path d="M1372,1659.00706 L1378.5736,1661.94306 C1484.85787,1709.50572 1538,1737.86039 1538,1747.00706 C1538,1761.00706 1494,1791.00706 1455,1806.00706 C1416,1821.00706 1348,1812.00706 1330,1824.00706 C1318,1832.00706 1301.33333,1839.00706 1280,1845.00706 C1270.77395,1841.71204 1262.19932,1846.23417 1254.27613,1858.57344 L1254,1859.00706 C1242.12,1877.81706 1228.2798,1908.38826 1228.00418,1925.49288 L1228,1926.00706 C1228,1937.34039 1221,1955.34039 1207,1980.00706 L1207,2010.00706 C1202.43939,2012.61312 1200.10727,2016.81095 1200.00362,2022.60055 L1199.99509,2023.66371 C1199.85722,2033.25313 1196.7907,2059.21636 1188,2068.00706 L1189.44,2095.68706 C1191.14667,2128.96706 1192,2147.74039 1192,2152.00706 L1192,2415.00706 L1191.99404,2415.89994 C1191.8,2433.26946 1186.9,2585.28706 1182,2599.00706 C1179.86045,2604.9978 1180.46751,2617.58041 1181.47057,2630.95673 L1181.77581,2634.92135 L1182.43507,2643.29044 C1183.4762,2656.81456 1184.18418,2669.32814 1182.09827,2674.76134 L1182,2675.00706 C1177.05,2686.88706 1174.0602,2765.41386 1177.88209,2778.62679 L1178,2779.00706 C1181.77269,2790.32513 1192.66198,2914.61923 1192.20937,2940.45556 L1183.28179,2983.63154 C1127.19161,3255.0401 1069.34515,3537.46344 1063.40917,3562.42609 L1063.2114,3563.23942 L1063.037,3563.88406 L1063,3564.00706 C1059.83101,3574.14782 1072.62959,3775.2969 1101.39574,4167.45427 L1103.1677,4191.57766 L1106,4230.00706 L1178.00945,4230.00475 L1178,4231.00706 L961,4230.00706 L959.3425,4217.58456 C949.221833,4141.47589 944.108233,4098.06042 944.0017,4087.33816 L944.010957,4069.80507 C944.071148,4022.44162 944.462,3899.46706 947,3891.00706 C949.97,3881.10706 951.9599,3773.19706 951.029102,3766.18835 L951,3766.00706 C950.9136,3765.57506 950.87199,3764.27712 950.866785,3762.26611 L950.87162,3760.28055 C950.912921,3753.9332 951.186934,3743.00437 951.542885,3730.24279 L952.722345,3688.59337 C953.130661,3673.4044 953.450944,3659.40067 953.475462,3650.36926 L953.473443,3647.75038 C953.450546,3642.99273 953.314694,3640.14484 953.021718,3640.01192 L953,3640.00706 C951.666667,3640.00706 951.666667,3611.67372 953,3555.00706 L953,3437.00706 L953.32,3424.63586 C954.533333,3379.35426 955.746667,3352.56689 956.96,3344.27376 L957.12831,3343.15808 C958.460314,3334.19424 960.417544,3316.47723 963,3290.00706 L963.844192,3278.00218 C966.245344,3243.26895 967.46368,3220.06818 967.4992,3208.39986 L967.4992,3207.37986 L967.490296,3206.20046 C967.453403,3203.18362 967.311309,3201.19248 967.064015,3200.22704 L967,3200.00706 C965.04,3194.12706 968.8424,3109.49426 968.99528,3097.64057 L969,3097.00706 C969,3088.09706 974.8806,2999.79896 974.998212,2992.21209 L974.9982,2991.55346 C974.9594,2985.65586 974.293333,2947.14039 973,2876.00706 L973,2779.00706 L973.28,2769.52556 C974.506667,2729.38289 975.733333,2707.57889 976.96,2704.11356 L977,2704.00706 C977.638815,2702.41002 977.971566,2698.05841 977.998255,2690.95224 L977.9996,2689.54346 C977.986533,2681.91252 977.653333,2671.40039 977,2658.00706 L977.5319,2651.24626 C979.2779,2629.57426 980.7539,2616.54226 981.9599,2612.15026 L982.0796,2611.71466 C983.3732,2606.73626 984.346667,2591.83372 985,2567.00706 L988.36,2499.92706 C988.669333,2493.58572 988.866533,2489.40296 988.9516,2487.37876 L989.004532,2485.8864 C989.087805,2484.4273 990.309971,2473.47241 991.948593,2460.24609 L992.270456,2457.6621 L992.813032,2453.36914 C993.089584,2451.20122 993.373408,2449.00738 993.661696,2446.8157 L994.668789,2439.31254 C996.664703,2424.76048 998.717339,2411.78585 999.9556,2409.09965 L1000,2409.00706 C1002.97,2403.06706 1013.7808,2358.90316 1013.99672,2355.10957 L1014,2355.00706 C1014,2353.72943 1017.0833,2342.83915 1020.62369,2330.44659 L1025.64824,2312.81124 C1028.58133,2302.41686 1030.93199,2293.75326 1030.99855,2292.07558 L1031,2292.00706 C1031,2290.68442 1032.5307,2284.11367 1034.57982,2275.69318 L1038.95633,2257.85525 L1040.70206,2250.65806 C1043.02117,2240.99865 1044.87285,2232.78173 1044.99372,2230.24865 L1045.00486,2229.82277 C1045.1566,2226.59544 1048.84273,2207.47718 1053.08778,2186.5061 L1054.51091,2179.50798 L1056.96698,2167.5684 C1061.39075,2146.21094 1065.46635,2127.32098 1065.98358,2126.04408 L1066.11311,2125.75269 C1066.77278,2124.18759 1069.53275,2116.839 1072.88214,2107.76047 L1075.4043,2100.90018 L1077.375,2095.50706 L1079.94412,2088.42882 L1082.10202,2082.43114 C1085.4093,2073.19233 1087.92508,2065.91946 1087.99836,2065.04205 L1088,2065.00706 C1088,2063.00706 1104,2003.00706 1101,2000.00706 C1099,1998.00706 1100.33333,1993.00706 1105,1985.00706 L1105,1975.00706 L1101,1972.00706 C1099,1970.00706 1098,1968.00706 1098,1966.00706 L1098.00412,1965.65381 C1098.07407,1962.48752 1099.03601,1955.29083 1100.88992,1955.0152 L1101,1955.00706 C1102.33333,1955.00706 1104.66667,1947.67372 1108,1933.00706 L1108,1816.00706 C1108,1815.00706 1101,1812.00706 1101,1806.00706 C1101,1802.00706 1103.33333,1797.34039 1108,1792.00706 L1104.9424,1789.72706 C1081.2304,1771.99372 1069.2509,1761.78122 1069.0039,1759.08956 L1069,1759.00706 C1069,1755.00706 1066,1748.00706 1066,1744.00706 C1066,1740.00706 1063,1724.00706 1066,1722.00706 C1067.25292,1721.17178 1076.52929,1726.09245 1087.49151,1732.10694 L1097.49897,1737.61124 L1101.27276,1739.6722 C1105.46588,1741.95102 1109.53602,1744.11916 1113.15809,1745.93749 L1113.9346,1746.32533 L1115.15338,1746.92537 C1120.21453,1749.39305 1124.17459,1751.00706 1126,1751.00706 C1131.33333,1751.00706 1138.33333,1753.00706 1147,1757.00706 L1150.4125,1757.29206 C1171.24917,1758.98406 1181.77717,1758.90886 1181.9965,1757.06646 L1182,1757.00706 C1182,1755.00706 1189,1755.67372 1203,1759.00706 L1209.00459,1759.2535 C1221.45202,1759.74429 1231.20233,1759.99535 1238.2555,1760.00666 L1240.55929,1760.0012 C1247.57079,1759.95408 1251.38436,1759.6227 1252,1759.00706 L1252.44704,1758.5453 C1253.57133,1757.36684 1256.14332,1754.60903 1259.4629,1751.28006 L1260.03917,1750.70397 C1261.98359,1748.76628 1264.15905,1746.6609 1266.43493,1744.57595 L1267.12058,1743.95126 L1268.15863,1743.019 L1268.96258,1742.30867 L1269.88985,1741.50274 C1274.84685,1737.23397 1279.96235,1733.47529 1284,1732.00706 C1295,1728.00706 1358,1677.00706 1360,1673.00706 C1361.33333,1670.34039 1365.33333,1665.67372 1372,1659.00706 Z" id="Tie" stroke="#333333" stroke-width="10" fill="#090E12"></path>
                <g id="Vest" transform="translate(0.000000, 1396.923722)" stroke="#333333" stroke-width="10">
                    <path d="M499,2833.08333 L570,2717.08333 C617.333333,2794.41667 646.666667,2833.08333 658,2833.08333 C669.333333,2833.08333 616.333333,2833.08333 499,2833.08333 Z" id="Path-3" fill="#3D4F6F"></path>
                    <path d="M1904,148.083333 C1921.89551,161.35541 1946.39035,169.076113 1977.67054,180.249244 L1980,181.083333 C2175,251.083333 2333,300.083333 2393,300.083333 C2453,300.083333 2496,303.083333 2533,388.083333 C2570,473.083333 2534,537.083333 2544,564.083333 L2545.27296,567.491333 C2556.0096,596.060933 2579.28,655.043333 2562,678.083333 C2550,694.083333 2566,717.416667 2610,748.083333 C2620.56,812.763333 2632.7535,851.960733 2646.5805,865.675533 L2647,866.083333 C2661,879.416667 2661,899.75 2647,927.083333 C2673,947.75 2686,968.416667 2686,989.083333 C2686,1009.75 2696.33333,1035.75 2717,1067.08333 C2712.7399,1084.32752 2712.7399,1096.66086 2717,1104.08333 C2725.89792,1119.58641 2759.35605,1105.86503 2768,1119.08333 C2781.95959,1140.4303 2768.87614,1187.07137 2765,1204.08333 C2794.33333,1278.08333 2832.33333,1326.41667 2879,1349.08333 C2925.66667,1371.75 2963,1468.75 2991,1640.08333 L3008,1651.08333 L3008,2833.08333 L2498,2833.08333 C2498.66,2738.70333 2508.4676,2678.62683 2527.4228,2652.85383 L2528,2652.08333 C2557,2614.08333 2570.84062,2544.21613 2524,2391.08333 C2498,2306.08333 2459.79759,2224.52805 2414,2172.08333 C2375.99099,2128.55765 2356.01392,2120.58785 2342,2088.08333 C2327.98608,2055.57881 2353,2050.08333 2342,2005.08333 C2334.66667,1975.08333 2265,1741.08333 2255,1741.08333 C2248.33333,1741.08333 2243,1748.75 2239,1764.08333 C2257.66667,1793.41667 2265,1816.41667 2261,1833.08333 L2260.64731,1834.51793 C2257.19365,1848.25855 2249.25037,1871.71291 2240.50246,1895.24338 L2239.49242,1897.95105 L2238.29458,1901.13864 C2231.22071,1919.88897 2223.83,1938.17405 2218,1951.08333 C2204,1982.08333 2282,2420.08333 2297,2443.08333 C2312,2466.08333 2436,2822.08333 2431,2833.08333 L1106,2833.08333 L1103.1677,2794.65393 C1073.1559,2386.6202 1059.76667,2177.43 1063,2167.08333 C1065.18659,2160.08624 1067.74287,2148.22142 1063.2114,2166.3157 L1062.99597,2167.11816 C1062.99901,2167.12401 1063.05782,2166.99406 1063.17239,2166.72831 C1065.7043,2160.66891 1067.80148,2155.63104 1069.46393,2151.61471 L1081.78136,2122.08348 C1139.60926,1983.3654 1190.73893,1859.16909 1235.17037,1749.49455 L1243.99107,1727.69457 L1355.75626,1455.89565 L1634.34975,778.166623 L1635.33069,776.543621 L1640.00886,768.873478 C1668.89906,721.593417 1689.56131,689.375124 1689.9931,688.113082 L1690.00929,688.045208 C1690.56699,686.537663 1716.22119,652.290593 1766.97189,585.303998 L1810.79398,527.538137 C1822.94549,511.536858 1836.01381,494.339567 1849.99892,475.946263 L1910,397.083333 L1966,341.083333 C1968.63704,330.535185 1963.77683,323.572675 1951.41938,320.195802 L1950.62764,319.984476 C1939.23022,316.933059 1907.42856,306.167849 1855.22269,287.688848 L1838.9488,281.913733 L1838.36476,281.762726 L1839.26807,279.564694 L1840.2424,279.550133 C1887.26747,281.292267 1914.85333,272.136667 1923,252.083333 C1931.37184,231.475737 1923.5696,195.62719 1899.5933,144.537692 C1901.01064,145.767798 1902.47707,146.95386 1904,148.083333 Z" id="Path" fill="#3D4F6F"></path>
                    <path d="M2393,300.083333 C2296.33333,434.083333 2241,535.416667 2227,604.083333 C2206,707.083333 2131.39092,769.327523 2110,917.083333 C2088.60908,1064.83914 2086,1299.08333 2119,1350.08333 C2141,1384.08333 2166.66667,1502.08333 2196,1704.08333 L2239,1764.08333" id="Path-2"></path>
                    <path d="M869,383.083333 C864.333333,396.416667 867.666667,402.416667 879,401.083333 C871.666667,411.75 864.666667,417.083333 858,417.083333 L853.424655,417.054414 C846.959196,416.998257 836.545974,416.894527 826.310524,417.068927 L823.635725,417.121199 C810.997349,417.401303 799.189437,418.154584 796.122701,420.005572 L796,420.083333 C790,424.083333 782,419.083333 768,440.083333 C758.666667,454.083333 741.666667,496.083333 717,566.083333 L698.1728,619.980533 C662.350933,722.595733 643.293333,777.63 641,785.083333 C637,798.083333 594,1040.08333 591,1063.08333 L590.679672,1065.58428 C586.6953,1097.08493 565.85,1272.38333 561,1282.08333 C556,1292.08333 518,1440.08333 518,1448.08333 C518,1456.08333 455,1780.08333 455,1787.08333 C455,1794.08333 414,2019.08333 414,2035.08333 C414,2050.91667 405.186523,2087.31478 405.002909,2100.66932 L405.0016,2101.64653 C405.053867,2111.55107 406.386667,2156.03 409,2235.08333 L409.0704,2243.96653 C409.551733,2313.05053 408.228067,2352.65287 405.0994,2362.77353 L405,2363.08333 C400.05,2377.93333 378.4383,2517.25603 378.006561,2525.8628 L378,2526.08333 C378,2532.02333 356.4378,2683.99823 356.006556,2694.79953 L356,2695.08333 C356,2703.08333 339,2788.08333 352,2814.08333 L356.925685,2823.88676 C359.18533,2828.35396 360.765602,2831.41994 361.666503,2833.08473 L0,2833.08473 L147,2313.08333 C174.333333,2269.08333 191.333333,2247.08333 198,2247.08333 C208,2247.08333 251,2034.08333 251,2019.08333 C251,2011.73333 252.4406,2000.30163 253.204118,1989.2589 L253.294082,1987.90897 L253.400441,1986.14615 C253.973216,1975.99735 253.789833,1966.54777 251.154756,1961.37688 L251,1961.08333 C247,1953.75 252,1937.41667 266,1912.08333 L267.1766,1907.82183 C279.605533,1862.52283 283.88,1837.61 280,1833.08333 C276,1828.41667 280,1818.41667 292,1803.08333 C288.734694,1796.55272 288.668055,1790.02211 291.800083,1783.4915 L292,1783.08333 C296.886364,1773.31061 298.907541,1765.448 305.530381,1758.56217 L306,1758.08333 C313,1751.08333 346,1720.08333 341,1711.08333 L340.334912,1709.86791 C334.5104,1699.09133 317,1663.76333 317,1656.08333 C317,1650.75 323,1638.75 335,1620.08333 L336.4838,1615.34813 C352.1382,1565.53053 362.263,1537.83133 366.8582,1532.25053 L370.495072,1528.05223 C378.7208,1518.61493 393.1,1503.08333 406,1503.08333 L406.239258,1500.92122 C408.600586,1478.8418 407.520833,1464.89583 403,1459.08333 C396,1450.08333 415,1416.08333 421,1409.08333 C427,1402.08333 464,1324.08333 464,1318.08333 L464.002909,1317.75193 C464.06549,1313.64025 465.133841,1292.24708 466.822976,1270.6402 L467.181737,1266.16563 C468.729169,1247.35352 470.729192,1229.27656 472.92588,1223.28084 L473,1223.08333 C474.1875,1219.99583 475.939062,1216.06224 477.919775,1211.75143 L483.38903,1199.95285 C488.364922,1189.15755 493,1178.53039 493,1174.08333 L492.997009,1173.81158 C492.910587,1169.60809 490.964543,1154.04693 488.904514,1138.08683 L485.782997,1113.92765 C484.734106,1105.67024 484,1099.51133 484,1098.08333 C484,1093.08333 496,1051.08333 499,1038.08333 C501.97,1025.21333 492.1987,963.338333 498.79507,948.517934 L499,948.083333 C505.93,934.223333 509.9197,861.557333 508.058203,860.105399 L508,860.083333 C506.02,860.083333 521.6818,785.595733 519.084337,778.284187 L519,778.083333 C516,772.083333 525,684.083333 532,671.083333 L532.2832,670.542533 C536.961067,661.369733 544.2,635.55 554,593.083333 L555.5904,590.662933 C581.410133,551.449867 599.546667,527.923333 610,520.083333 C626,508.083333 837,370.083333 850,366.083333 C859.767653,363.077902 896.068624,344.829925 922.000072,328.730399 L919.590758,330.879 C893.737647,353.984233 871.727581,375.290244 869,383.083333 Z" id="Path" fill="#3D4F6F"></path>
                    <path d="M570,2717.08333 C571.333333,2691.75 574.333333,2675.08333 579,2667.08333 C586,2655.08333 605,2621.08333 605,2616.08333 C605,2611.08333 597,2566.08333 605,2550.08333 C610.333333,2539.41667 615.333333,2526.08333 620,2510.08333 L641,2449.08333 L624,2428.08333 C633.333333,2333.41667 639,2283.41667 641,2278.08333 C644,2270.08333 651,2210.08333 651,2202.08333 C651,2194.08333 656,2155.08333 660,2152.08333 C662.666667,2150.08333 659.666667,2137.41667 651,2114.08333 L674,2020.08333 L681,1993.08333 L657,1889.08333 C664.333333,1739.75 669,1660.41667 671,1651.08333 C673,1641.75 674,1618.75 674,1582.08333 L677,1506.08333 C684.333333,1418.75 689.333333,1371.75 692,1365.08333 C694.666667,1358.41667 705.333333,1301.41667 724,1194.08333 L768,988.083333 C804,854.083333 823.333333,785.416667 826,782.083333 C828.666667,778.75 846.333333,731.416667 879,640.083333 L947,499.083333 C957.666667,462.416667 963,441.416667 963,436.083333 C963,430.75 973.666667,413.083333 995,383.083333 C995.666667,343.75 994.333333,322.75 991,320.083333 C987.666667,317.416667 990.333333,310.75 999,300.083333 C1006.33333,269.416667 1010,254.083333 1010,254.083333 C1010,254.083333 876,363.083333 869,383.083333 C864.333333,396.416667 867.666667,402.416667 879,401.083333 C871.666667,411.75 864.666667,417.083333 858,417.083333 C848,417.083333 802,416.083333 796,420.083333 C790,424.083333 782,419.083333 768,440.083333 C758.666667,454.083333 741.666667,496.083333 717,566.083333 C669,703.416667 643.666667,776.416667 641,785.083333 C637,798.083333 594,1040.08333 591,1063.08333 C588,1086.08333 566,1272.08333 561,1282.08333 C556,1292.08333 518,1440.08333 518,1448.08333 C518,1456.08333 455,1780.08333 455,1787.08333 C455,1794.08333 414,2019.08333 414,2035.08333 C414,2051.08333 405,2088.08333 405,2101.08333 C405,2109.75 406.333333,2154.41667 409,2235.08333 C409.666667,2310.41667 408.333333,2353.08333 405,2363.08333 C400,2378.08333 378,2520.08333 378,2526.08333 C378,2532.08333 356,2687.08333 356,2695.08333 C356,2703.08333 339,2788.08333 352,2814.08333 C360.666667,2831.41667 364,2837.75 362,2833.08333 L499,2833.08333 L570,2717.08333 Z" id="Path-4" fill="#323D50"></path>
                    <path d="M1760,10.0833333 C1767.32598,15.1199473 1784.65932,37.4532806 1812,77.0833333 C1821.07895,83.7628177 1884.50479,125.500407 1896.27754,138.296102 C1919.87029,199.932034 1928.77778,237.861111 1923,252.083333 C1917.56889,265.452222 1889.65824,274.612676 1839.26807,279.564694 L1838.36476,281.762726 L1855.22269,287.688848 C1907.42856,306.167849 1939.23022,316.933059 1950.62764,319.984476 L1951,320.083333 C1963.66667,323.416667 1968.66667,330.416667 1966,341.083333 L1910,397.083333 L1849.99892,475.946263 C1828.38556,504.372278 1808.96192,529.941701 1791.728,552.654533 L1766.97189,585.303998 C1716.22119,652.290593 1690.56699,686.537663 1690.00929,688.045208 L1690,688.083333 C1690,688.723333 1666.96,724.588933 1635.33069,776.543621 L1634.34975,778.166623 L1355.75626,1455.89565 L1243.99107,1727.69457 L1236.51473,1746.17552 C1191.77117,1856.66156 1140.19338,1981.96421 1081.78136,2122.08348 L1069.46393,2151.61471 C1065.17077,2161.98661 1063.01478,2167.15436 1062.99597,2167.13148 L1063.2114,2166.3157 C1072.2002,2130.42323 1279.13,1112.69333 1292,1074.08333 C1305,1035.08333 1394,676.083333 1419,620.083333 L1420.63824,616.391717 C1449.62946,550.748919 1586.84662,226.562984 1655,148.083333 L1656.98241,145.807356 C1689.39722,108.697697 1723.36061,74.7024171 1731,36.0833333 C1732.746,27.256871 1731.41266,15.256871 1727,0.0833333333 C1738.33333,-0.583333333 1749.33333,2.75 1760,10.0833333 Z" id="Path" fill="#323D50"></path>
                    <path d="M1137,2258.08333 C1169,2260.08333 1199,2276.08333 1199,2319.08333 C1199,2362.08333 1165.02696,2371.08622 1137,2368.08333 C1108.97304,2365.08045 1087,2332.92603 1087,2307.08333 C1087,2281.24064 1105,2256.08333 1137,2258.08333 Z" id="Knop" fill="#090E12"></path>
                </g>
                <path d="M1225,0 C1244.24025,-0.033831886 1280.76065,25.7017127 1276,32.0070551 C1265.72758,45.6125688 1276,55.3626744 1276,59.0070551 C1276,64.3403884 1307.47811,51.5988297 1338,59.0070551 C1368.21667,66.3411982 1388.58943,89.536838 1397.72656,92.9109144 L1398,93.0070551 C1413,98.0070551 1413,132.007055 1418,132.007055 C1423,132.007055 1505,158.007055 1528,184.007055 L1528.9088,185.040255 C1535.44284,192.511889 1550.59393,215.720607 1576,244.007055 C1592.43147,262.301423 1611.87796,282.214194 1627.69607,298.050732 L1632.63473,302.981105 L1641.77333,312.036159 C1649.38692,319.546603 1654.93421,324.941264 1657,327.007055 C1669,339.007055 1661,358.007055 1661,369.007055 C1661,380.007055 1674,416.007055 1681,430.007055 C1688,444.007055 1719,573.007055 1724,600.007055 C1724.188,601.022266 1724.3601,602.181683 1724.51629,603.485306 C1724.63056,604.439118 1724.73623,605.469136 1724.83338,606.576045 L1724.96011,608.12662 L1725.02627,609.03291 L1725.10165,610.163871 L1725.16369,611.187527 L1725.24998,612.784348 L1725.30782,613.996005 L1725.36968,615.454809 C1725.38932,615.9498 1725.40798,616.453533 1725.42567,616.966065 L1725.48906,618.98662 L1725.52229,620.234076 L1725.55451,621.625579 L1725.59435,623.729029 C1725.60027,624.086347 1725.60582,624.447006 1725.61101,624.810959 L1725.63332,626.599259 C1725.64305,627.50621 1725.65065,628.432381 1725.65612,629.377856 L1725.66633,632.43001 C1725.67048,636.585278 1725.63683,641.083452 1725.56538,645.924411 L1725.52287,648.58634 C1725.48924,650.547264 1725.44972,652.561654 1725.4043,654.62951 L1725.30111,659.016689 L1725.14339,664.882767 C1725.11511,665.869282 1725.08568,666.86619 1725.05511,667.873491 L1724.95996,670.926568 C1724.88713,673.205013 1724.80863,675.535437 1724.7245,677.916945 L1724.54655,682.806523 L1724.3465,688.005455 L1724.07285,694.725252 L1723.91403,698.458892 C1723.83275,700.34265 1723.74864,702.251841 1723.66171,704.186582 L1723.33745,711.243356 L1723.10604,716.106294 L1722.85786,721.186007 C1722.71336,724.106425 1722.56323,727.078545 1722.4075,730.101484 L1721.87335,740.26072 L1721.51508,746.86713 L1721.18156,752.88915 C1720.94013,757.207186 1720.68905,761.611975 1720.42824,766.104841 L1719.85126,775.921291 L1719.36749,783.97926 L1719,790.007055 C1721.42424,789.400995 1724.39945,788.24397 1727.92562,786.535981 L1729,786.007055 C1735,783.007055 1761,783.007055 1777,792.007055 C1787.66667,798.007055 1795,812.673722 1799,836.007055 L1799.0848,837.431055 C1799.8016,848.695055 1801.44,856.887055 1804,862.007055 C1808,870.007055 1783,938.007055 1781,940.007055 C1779.66667,941.340388 1770.66667,964.007055 1754,1008.00706 L1753.13648,1009.42442 C1741.04549,1029.39139 1735,1044.5856 1735,1055.00706 C1735,1071.00706 1703,1098.00706 1693,1103.00706 C1683,1108.00706 1669,1101.00706 1660,1098.00706 C1654,1096.00706 1650.33333,1088.00706 1649,1074.00706 L1648.89302,1074.13752 L1649,1084.00706 C1649.18566,1100.05711 1655.38401,1118.02276 1655,1137.00706 C1654.56815,1158.35628 1644.61541,1180.83914 1644.10319,1205.94962 L1648.18701,1198.49515 C1648.45749,1198.00028 1648.72848,1197.50425 1649,1197.00706 L1644.73893,1230.00459 C1633.57964,1316.79237 1628,1363.45986 1628,1370.00706 C1628,1380.89706 1556.4527,1444.71246 1551.14056,1448.89857 L1550.37754,1449.48965 C1545.25181,1453.50732 1512.05923,1480.00639 1450.7998,1528.98688 L1380.39781,1585.29075 L1342,1616.00706 L1340.4896,1617.39306 L1338.32626,1619.35968 C1315.2293,1640.23605 1299.21468,1650.78401 1290.2824,1651.00356 L1290,1651.00706 C1276,1651.00706 1250,1668.00706 1241,1673.00706 C1232,1678.00706 1216,1717.00706 1216,1726.00706 C1216,1732.00706 1218,1735.00706 1222,1735.00706 L1220.78866,1742.11938 L1220.31411,1744.77932 C1219.43804,1749.58817 1219,1751.33074 1219,1750.00706 C1219,1749.04425 1214.75126,1747.69519 1206.25379,1745.95989 L1204.6945,1745.64656 C1195.5315,1743.83356 1181.96667,1741.62039 1164,1739.00706 L1161.9012,1736.86186 C1128.31333,1702.42039 1111.34803,1679.58336 1111.0053,1668.35076 L1111,1668.00706 C1111,1656.83589 1102.25571,1591.57967 1084.76713,1472.23841 L1081.80915,1469.34341 L1079.3376,1466.94991 L1077.36103,1465.05324 L1075.43428,1463.22135 L1073.55827,1461.45598 C1065.15261,1453.59021 1059.39696,1448.82479 1056.29071,1447.15789 L1056,1447.00706 C1050.7102,1444.36216 1041.53403,1430.44676 1031.89783,1414.94032 L1029.31968,1410.77435 L1021.90824,1398.73254 L1019.21718,1394.39542 L1017.11411,1391.04256 L1015.75904,1388.90589 L1014.49772,1386.93786 C1011.02284,1381.54716 1007.79599,1376.81287 1005.0198,1373.30748 L1003.77636,1371.91461 C1001.85013,1369.77109 1000.65475,1368.5172 1000.18958,1368.1525 L1000,1368.00706 C989.32,1359.99706 963.5901,1307.62946 958.05875,1296.2055 L956.955018,1293.91688 C956.005194,1292.01032 940.328202,1260.42824 940.005066,1252.2548 L940,1252.00706 C940,1244.08706 923.3383,1206.76406 918.153571,1180.79061 L918,1180.00706 C914.666667,1162.67372 915,1136.34039 913,1103.00706 C913.10701,1103.06371 913.215417,1103.12779 913.325184,1103.19915 L913,1103.00706 C913.114219,1103.06752 913.229382,1103.13652 913.345474,1103.21388 C913.596159,1103.37719 913.854179,1103.58007 914.118848,1103.81931 L913.041924,1099.30359 L912.019,1094.92872 L911.370911,1092.08258 C910.53439,1088.35229 910.080673,1086.06044 910.009831,1085.20699 L910,1085.00706 L909.995615,1084.83635 C909.852776,1081.68801 906.240679,1061.00464 902.127347,1039.90946 L900.640285,1032.3783 C896.863568,1013.49754 892.967054,995.939868 891.123274,992.239105 L891,992.007055 C888.333333,987.340388 888.333333,970.007055 891,940.007055 L891.76,929.947055 C893.874282,901.40425 894.953798,881.656954 894.998549,870.705165 L895,870.007055 C895,858.007055 890.666667,839.340388 882,814.007055 L881.5216,807.482255 L881.179133,802.927063 L880.73867,797.212812 C877.226063,752.297955 873.97984,726.562703 871,720.007055 C866,709.007055 876,616.007055 876,605.007055 C876,594.007055 910,458.007055 923,441.007055 C930.06882,431.763214 934.033105,412.318762 934.892857,382.673699 L933.938778,382.547716 L932.755116,382.378147 L931.871901,382.24217 L930.765495,382.061334 L929.825313,381.898849 L928.711234,381.696762 L927.209795,381.408544 L926.554407,381.277525 C925.911905,381.147453 925.265533,381.012216 924.61562,380.872163 L922.952456,380.505169 L921.121175,380.082413 C919.633364,379.731439 918.131127,379.359516 916.618668,378.97094 L914.529378,378.425617 L912.307572,377.8285 L910.261857,377.265075 L907.908612,376.60317 L905.626512,375.94953 L902.985917,375.181793 L900.99041,374.595487 L899,374.007055 C872.27,366.087055 877.8833,362.087455 866.354651,348.424069 L866,348.007055 L865.952547,347.873913 C855.91151,332.08833 894.259681,220.98233 898.869236,194.784088 L899,194.007055 C902.96,169.257055 933.3827,153.327955 944.664047,149.130652 L945,149.007055 C955.89,145.047055 977.5611,132.266155 977.993433,126.189139 L978,126.007055 C978,123.351317 984.073367,117.560938 990.843679,111.497563 L992.918871,109.64785 L998.076767,105.06511 L999.350467,103.920103 C1004.58047,99.1954865 1008.76897,95.0905071 1008.99076,93.1621221 L1009,93.0070551 C1009,88.0070551 1046,89.0070551 1051,75.0070551 C1056,61.0070551 1091,26.0070551 1109,21.0070551 C1118.16683,18.4607142 1137.69408,25.6880039 1163,21.0070551 C1187.38483,16.4964838 1215.5582,0.0270948824 1225,0 Z" id="Face" stroke="#333333" stroke-width="10"></path>
                <path d="M1225,3.33912762e-05 C1244.24025,-0.033831886 1280.76065,25.7017127 1276,32.0070551 C1265.72758,45.6125688 1276,55.3626744 1276,59.0070551 C1276,64.3403884 1307.47811,51.5988297 1338,59.0070551 C1368.21667,66.3411982 1388.58943,89.536838 1397.72656,92.9109144 L1398,93.0070551 C1413,98.0070551 1413,132.007055 1418,132.007055 C1423,132.007055 1505,158.007055 1528,184.007055 L1528.9088,185.040255 C1535.44284,192.511889 1550.59393,215.720607 1576,244.007055 C1592.43147,262.301423 1611.87796,282.214194 1627.69607,298.050732 L1632.63473,302.981105 C1644.85084,315.14297 1654.17675,324.183808 1657,327.007055 C1669,339.007055 1661,358.007055 1661,369.007055 C1661,380.007055 1674,416.007055 1681,430.007055 C1688,444.007055 1719,573.007055 1724,600.007055 C1727.33333,618.007055 1725.66667,681.340388 1719,790.007055 C1711.18182,794.567661 1704.95541,796.899789 1700.32076,797.003439 L1700,797.007055 C1696.17333,797.007055 1686.74333,805.748255 1671.71,823.230655 L1670.6,824.525455 C1667.61333,828.019855 1649.3576,941.857855 1649.00536,954.64816 L1648.74967,977.090782 C1648.664,986.523383 1648.58841,998.910318 1648.5839,1014.25355 L1648.59764,1027.61606 L1648.61397,1033.35006 C1648.6639,1048.15051 1648.78055,1065.03579 1649,1084.00706 C1649.18566,1100.05711 1655.38401,1118.02276 1655,1137.00706 C1654.56815,1158.35628 1644.61541,1180.83914 1644.10319,1205.94962 L1641.21299,1211.20574 C1594.34915,1296.29061 1564.27848,1343.89012 1551,1354.00706 L1550.38621,1354.47774 C1541.88864,1361.03301 1521.95628,1377.90874 1499.98335,1396.67694 L1487.68061,1407.19805 L1444.70925,1443.96418 C1430.52793,1456.04522 1419.88735,1464.98591 1417,1467.00706 C1407,1474.00706 1311,1520.00706 1285,1520.00706 C1259,1520.00706 1171,1525.00706 1159,1517.00706 C1147,1509.00706 1103,1495.00706 1096,1481.00706 L1076.94206,1458.21968 C1028.38298,1400.2206 1002.79881,1370.19821 1000.18958,1368.1525 L1000,1368.00706 C989.32,1359.99706 963.5901,1307.62946 958.05875,1296.2055 L956.955018,1293.91688 C956.005194,1292.01032 940.328202,1260.42824 940.005066,1252.2548 L940,1252.00706 C940,1244.08706 923.3383,1206.76406 918.153571,1180.79061 L918,1180.00706 C914.666667,1162.67372 915,1136.34039 913,1103.00706 C924.161616,1108.91615 944.326407,1196.25811 962,1208.00706 C973.782395,1215.83969 988.504085,1199.4096 1006.16507,1158.71679 L1020.2204,1137.75367 C1024.69199,1131.06161 1028.26455,1125.68481 1030.93806,1121.62326 L1033.94831,1117.04482 C1049.36168,1093.68656 1060.67757,1078.5001 1072,1073.00706 C1093.79444,1062.43356 1122.94536,1064.00706 1128,1064.00706 L1128.35238,1064.00006 C1133.71764,1063.79817 1150.12841,1059.26914 1166.85956,1055.97101 L1168.68844,1055.61581 C1171.81811,1055.01736 1174.94532,1054.469 1178,1054.00706 C1194.67991,1051.48465 1208.59548,1052.48594 1214,1054.00706 L1219.6898,1057.03466 C1280.2566,1089.31626 1316.36,1110.30706 1328,1120.00706 C1345.82,1134.85706 1417.80366,1235.21385 1427,1232.00706 C1462.7741,1219.53249 1483.57468,1173.73943 1493,1167.00706 C1527.65,1142.25706 1609.3448,1000.87516 1619.70792,991.257899 L1620,991.007055 C1626,986.340388 1631.66667,934.673722 1637,836.007055 L1637.46499,829.901386 C1638.97904,810.408239 1640.134,799.505921 1640.92986,797.194433 L1641,797.007055 C1642.6896,792.783055 1642.95183,776.961641 1642.69106,759.717134 L1642.65235,757.357745 L1642.59561,754.392435 L1642.5575,752.608975 L1642.42144,747.045102 L1642.22507,740.263126 C1641.70319,723.505727 1641,709.103468 1641,707.007055 C1641,702.007055 1588,608.007055 1580,600.007055 C1574.66667,594.673722 1563.33333,570.340388 1546,527.007055 C1560,515.007055 1572.66667,507.340388 1584,504.007055 C1601,499.007055 1608,449.007055 1608,434.007055 C1608,419.007055 1595,411.007055 1580,407.007055 C1565,403.007055 1559,383.007055 1553,358.007055 C1547,333.007055 1474,306.007055 1468,306.007055 C1462,306.007055 1391,296.007055 1378,287.007055 C1365.13,278.097055 1310.1157,266.246755 1295.43252,266.01064 L1295,266.007055 C1285.66667,266.007055 1262.33333,268.340388 1225,273.007055 C1192.82828,282.198974 1163.88965,286.86457 1138.18411,287.003841 L1135.23219,287.011915 C1108.40868,287.160426 1093.63527,290.692269 1079.52667,294.847377 L1078.11761,295.264863 L1075.70978,295.987039 L1071.71534,297.193125 C1069.03328,298.000737 1066.30038,298.812391 1063.44074,299.609688 L1060.60509,300.392837 L1059.19711,300.793547 C1039.14631,306.58434 1024.58353,314.465264 1001.58233,331.809141 L1000,333.007055 C975,352.007055 969,358.007055 962,374.007055 C955.6937,388.421455 931.531742,383.356956 907.062667,376.362097 L904.691168,375.678823 L903.469157,375.323062 L899,374.007055 C872.27,366.087055 877.8833,362.087455 866.354651,348.424069 C854.941288,334.897317 894.20169,221.311919 898.869236,194.784088 L899,194.007055 C902.96,169.257055 933.3827,153.327955 944.664047,149.130652 L945,149.007055 C955.89,145.047055 977.5611,132.266155 977.993433,126.189139 L978,126.007055 C978,123.082055 985.367344,116.354555 992.918871,109.64785 L998.076767,105.06511 C1003.88493,99.8662134 1008.75123,95.2447779 1008.99076,93.1621221 L1009,93.0070551 C1009,88.0070551 1046,89.0070551 1051,75.0070551 C1056,61.0070551 1091,26.0070551 1109,21.0070551 C1118.16683,18.4607142 1137.69408,25.6880039 1163,21.0070551 C1187.38483,16.4964838 1215.5582,0.0270948824 1225,3.33912762e-05 Z M1128,1127.00706 C1087.76029,1132.55736 1066,1155.00706 1056,1161.00706 C1046,1167.00706 1037.66667,1182.00706 1031,1206.00706 C1023.4312,1236.76222 1017.1777,1254.68122 1012.2395,1259.76406 C1004.8322,1267.38831 1007.842,1298.46856 1007.99763,1310.64259 C1008.15326,1322.81662 1065.37778,1359.91817 1071,1364.00706 C1078.21029,1369.2509 1113.44679,1376.41699 1138,1368.00706 C1163.3912,1359.3101 1172,1335.87325 1172,1332.00706 L1171.99137,1331.90314 C1171.72107,1330.02576 1165.1078,1316.53737 1153,1307.00706 C1141.61667,1298.04698 1121.2452,1293.35015 1125,1288.00706 C1130.54542,1280.11589 1157.25191,1289.56604 1178,1288.00706 C1202.82931,1286.14142 1225.11953,1274.45283 1230,1279.00706 C1239.67962,1288.03963 1213.45727,1301.58756 1214,1316.00706 C1214.65641,1333.44685 1241.21609,1351.38003 1246,1354.00706 C1255.93866,1359.46475 1271.14523,1356.08036 1280,1355.00706 C1313.66,1343.78706 1332.9452,1329.30006 1337.8556,1311.54606 C1342.766,1293.79206 1384.96966,1266.32605 1380.71663,1254.76978 C1377.88128,1247.0656 1373.6424,1239.47802 1368,1232.00706 C1348.98645,1216.13969 1331.65311,1200.80636 1316,1186.00706 L1282.5308,1167.06116 C1255.7836,1151.89176 1238.27333,1141.87372 1230,1137.00706 C1213.17,1127.10706 1168.23971,1121.45675 1128,1127.00706 Z" id="Hair" stroke="#333333" stroke-width="10" fill="#52403C"></path>
                <path d="M1443.65637,659.885863 L1445.85711,659.894948 C1458.32105,659.973013 1474.68529,660.536594 1491.96231,662.86521 L1493,663.007055 C1521.92242,667.016103 1521.02125,671.908136 1527.79243,673.946174 L1528.5186,674.152115 C1535.71288,676.14285 1594.17248,691.844192 1643,711.007055 C1678.86512,725.08269 1709.08761,744.094668 1712,747.007055 L1712.60316,747.612787 C1718.78745,753.852812 1717.09818,753.154744 1717.9578,758.740567 L1718.05478,759.363259 C1718.67583,763.631953 1719,773.846552 1719,790.007055 L1711,792.007055 C1710.38095,788.911817 1710.04932,786.103994 1710.0051,783.583586 L1710,783.007055 C1710,779.007055 1709,771.007055 1707,765.007055 C1705.02,759.067055 1562.8857,719.803655 1555.19172,717.078383 L1555,717.007055 C1550,715.007055 1518,711.007055 1506,711.007055 C1494.41379,711.007055 1487.4887,714.735949 1482.5245,716.79327 L1482,717.007055 C1477,719.007055 1478,723.007055 1480,726.007055 C1481.02,727.537055 1480.9996,738.430655 1480.73471,749.402285 L1480.60814,754.095297 C1480.35241,762.766722 1480.01261,770.631371 1480.00034,772.887514 L1479.99509,773.842664 C1479.92953,779.741593 1479.14796,796.840306 1474.15733,818.333956 L1474,819.007055 C1468.60172,841.949734 1461,865.007055 1456,875.007055 C1451,885.007055 1430,902.007055 1421,907.007055 L1418.80672,908.225956 C1417.31612,909.050433 1415.75621,909.897213 1414.0522,910.757599 L1413.40629,911.080864 C1405.35322,915.075253 1394.01772,919.337435 1372,923.007055 L1370.19303,923.301097 C1340.33137,928.046827 1293.78,930.007055 1283,930.007055 L1282.42468,930.006165 C1271.37424,929.971932 1253.60289,928.928147 1243,923.007055 C1232.35689,917.063503 1219.41781,905.759481 1206.52962,887.750911 L1206,887.007055 C1192.93711,868.565334 1189.22267,857.068614 1175,827.007055 L1173.73994,824.358002 C1160.37319,796.410035 1153.88,787.767055 1150,780.007055 C1146.83117,773.669393 1139.26919,772.980069 1131.78871,772.967242 L1131.05334,772.967987 L1129.95335,772.974985 L1128.13607,772.993571 C1127.41474,773.000983 1126.7013,773.007055 1126,773.007055 C1117.10227,773.007055 1107.30747,784.35096 1100.24253,796.58486 L1100,797.007055 C1093.00419,809.249728 1098.07545,812.947547 1094.14956,828.428269 C1084.70138,882.290918 1074.98486,916.150514 1065,930.007055 C1050.02271,950.791867 1037,951.007055 1030,955.007055 C1026.32946,957.104509 989.282662,966.037713 953.096259,967.951233 L937.669105,968.719209 C914.579924,969.819802 900.991383,969.850558 882,964.007055 C859.617299,957.12007 852.149346,940.346915 848.121029,936.130945 L848,936.007055 C845.333333,933.340388 837.333333,915.340388 824,882.007055 L818.8025,867.625655 C805.749167,831.404855 799.149167,812.220855 799.0025,810.073655 L799,810.007055 C799,808.269657 794.752971,801.31364 788,799.007055 C783.092484,797.330814 777.456788,799.5969 776,797.007055 C772.538604,790.853462 771,767.007055 776,761.007055 C781,755.007055 843.445351,731.526758 924,716.007055 C977.703099,705.660586 1032.36977,713.99392 1088,741.007055 L1090.19427,741.140087 C1125.76921,743.248602 1148.37112,742.204258 1158,738.007055 C1172.73808,731.582765 1164.26949,721.363146 1180,708.007055 C1195.73051,694.650965 1244.61969,673.094044 1294,666.007055 C1331.03523,660.691814 1381.70512,659.974434 1408.94411,659.947947 L1415.01261,659.952855 C1420.90333,659.967815 1425.1,660.007055 1427,660.007055 L1428.72082,659.999194 C1431.73047,659.975173 1435.79508,659.903423 1440.6722,659.885863 L1443.65637,659.885863 Z M945,733.007055 C898.694758,736.6684 862.779102,750.248194 846.527775,756.773967 L841,759.007055 C828.822882,763.877902 825,773.007055 825,781.007055 C825,786.340388 845,798.673722 885,818.007055 L889,847.007055 L823,821.007055 L822,827.007055 L823.415594,833.252619 C831.315563,867.794474 847.285825,930.904439 877,947.007055 C890.39509,954.266082 907.915711,956.602314 935,956.007055 L937.840453,955.940473 C983.988861,954.789667 1018.0923,950.495972 1039,937.007055 C1042.90761,934.486 1047.57428,929.486 1053,922.007055 C1077,872.673722 1087.66667,836.673722 1085,814.007055 L1084.63957,810.97149 C1080.7456,778.519655 1076.4,754.677055 1057,744.007055 C1037,733.007055 997.619593,728.846436 945,733.007055 Z M1319,686.007055 L1315.28107,686.61275 C1275.60896,693.108893 1249.18194,698.573661 1236,703.007055 C1208.41227,712.285455 1195.21724,726.256277 1191,732.007055 C1180.11957,746.844012 1178.04454,763.637726 1178.96846,771.74301 L1179.03857,772.353943 C1179.45932,776.50556 1180.305,795.063429 1193.58106,824.09637 L1194,825.007055 C1199.42067,836.720605 1212.08733,858.053938 1232,889.007055 C1242.66667,904.340388 1257,913.673722 1275,917.007055 C1293.92911,920.512445 1362.41536,916.648096 1407,897.007055 L1407.50302,896.777073 C1416.08867,892.717816 1442.55911,873.770374 1453,833.007055 C1457.14679,816.817173 1457.81345,784.817173 1455,737.007055 C1454.33333,717.007055 1448.66667,702.340388 1438,693.007055 C1427.33333,683.673722 1387.66667,681.340388 1319,686.007055 Z" id="Glasses" fill="#090E12"></path>
            </g>
        </g>
    </g>
</svg>